<svg version="1.1" id="Layer_1" xmlns="http://www.w3.org/2000/svg" xmlns:xlink="http://www.w3.org/1999/xlink" x="0px" y="0px"
	 width="100%" viewBox="0 0 252 262" enable-background="new 0 0 252 262" xml:space="preserve">
<path fill="#FFFFFF" opacity="1.000000" stroke="none" 
	d="
M1.000000,97.000000 
	C1.000000,64.666672 1.000000,32.833347 1.000000,1.000017 
	C84.999977,1.000011 168.999954,1.000011 252.999939,1.000006 
	C252.999969,88.333282 252.999969,175.666565 252.999985,262.999878 
	C169.000061,262.999939 85.000137,262.999939 1.000103,262.999969 
	C1.000000,207.833328 1.000000,152.666672 1.000000,97.000000 
M12.998901,15.714084 
	C12.998901,93.646881 12.998901,171.579681 12.998901,249.732437 
	C14.385029,249.796478 15.187946,249.865967 15.990871,249.866058 
	C67.821472,249.871490 119.652176,249.831650 171.482452,249.963440 
	C174.828552,249.971954 176.052490,248.382538 177.440323,245.914673 
	C198.373978,208.690491 219.339661,171.484116 240.446320,134.357941 
	C242.077103,131.489410 242.026138,129.547165 240.358673,126.750031 
	C218.653671,90.340477 197.052063,53.869015 175.558411,17.334307 
	C173.968292,14.631413 172.236832,13.920853 169.266968,13.926307 
	C118.769798,14.019053 68.272400,13.985965 17.775093,14.024628 
	C16.204510,14.025830 14.634287,14.497959 12.998901,15.714084 
z"/>
<path fill="#04223D" opacity="1.000000" stroke="none" 
	d="
M13.031399,15.232313 
	C14.634287,14.497959 16.204510,14.025830 17.775093,14.024628 
	C68.272400,13.985965 118.769798,14.019053 169.266968,13.926307 
	C172.236832,13.920853 173.968292,14.631413 175.558411,17.334307 
	C197.052063,53.869015 218.653671,90.340477 240.358673,126.750031 
	C242.026138,129.547165 242.077103,131.489410 240.446320,134.357941 
	C219.339661,171.484116 198.373978,208.690491 177.440323,245.914673 
	C176.052490,248.382538 174.828552,249.971954 171.482452,249.963440 
	C119.652176,249.831650 67.821472,249.871490 15.990871,249.866058 
	C15.187946,249.865967 14.385029,249.796478 12.998901,249.732437 
	C12.998901,171.579681 12.998901,93.646881 13.031399,15.232313 
M139.500122,33.596024 
	C104.074165,33.596024 68.648216,33.596024 33.125744,33.596024 
	C33.125744,99.370842 33.125744,164.591873 33.125744,229.648346 
	C33.544689,229.891525 33.681015,230.039978 33.817474,230.040085 
	C76.141975,230.076431 118.466553,230.127609 160.790726,230.018082 
	C162.178772,230.014496 164.144089,228.705688 164.863297,227.447037 
	C182.670898,196.282303 200.380310,165.061081 217.939819,133.756027 
	C218.768219,132.279144 218.794922,129.505829 217.951706,128.062714 
	C200.091187,97.494942 182.085968,67.011276 163.943771,36.609787 
	C163.068710,35.143421 160.722763,33.829521 158.989075,33.731590 
	C152.843155,33.384430 146.665649,33.596062 139.500122,33.596024 
z"/>
<path fill="#FEFEFF" opacity="1.000000" stroke="none" 
	d="
M140.000122,33.595993 
	C146.665649,33.596062 152.843155,33.384430 158.989075,33.731590 
	C160.722763,33.829521 163.068710,35.143421 163.943771,36.609787 
	C182.085968,67.011276 200.091187,97.494942 217.951706,128.062714 
	C218.794922,129.505829 218.768219,132.279144 217.939819,133.756027 
	C200.380310,165.061081 182.670898,196.282303 164.863297,227.447037 
	C164.144089,228.705688 162.178772,230.014496 160.790726,230.018082 
	C118.466553,230.127609 76.141975,230.076431 33.817474,230.040085 
	C33.681015,230.039978 33.544689,229.891525 33.125744,229.648346 
	C33.125744,164.591873 33.125744,99.370842 33.125744,33.596024 
	C68.648216,33.596024 104.074165,33.596024 140.000122,33.595993 
M103.499992,190.864365 
	C114.491936,190.864365 125.486191,190.739975 136.474350,190.943756 
	C139.577072,191.001312 141.201080,189.942093 142.685974,187.292252 
	C152.278427,170.174011 161.981171,153.116440 171.810654,136.133255 
	C173.419189,133.354065 173.479309,131.250397 171.854446,128.443161 
	C162.024765,111.460838 152.321640,94.404076 142.741669,77.279633 
	C141.226364,74.570992 139.484787,73.731560 136.458878,73.752754 
	C116.807526,73.890404 97.154739,73.817215 77.502449,73.836121 
	C76.062492,73.837502 74.622719,74.020256 73.203171,74.117294 
	C73.203171,113.160561 73.203171,151.843765 73.203171,190.864304 
	C83.229332,190.864304 92.864655,190.864304 103.499992,190.864365 
z"/>
<path fill="#1595D0" opacity="1.000000" stroke="none" 
	d="
M102.999985,190.864334 
	C92.864655,190.864304 83.229332,190.864304 73.203171,190.864304 
	C73.203171,151.843765 73.203171,113.160561 73.203171,74.117294 
	C74.622719,74.020256 76.062492,73.837502 77.502449,73.836121 
	C97.154739,73.817215 116.807526,73.890404 136.458878,73.752754 
	C139.484787,73.731560 141.226364,74.570992 142.741669,77.279633 
	C152.321640,94.404076 162.024765,111.460838 171.854446,128.443161 
	C173.479309,131.250397 173.419189,133.354065 171.810654,136.133255 
	C161.981171,153.116440 152.278427,170.174011 142.685974,187.292252 
	C141.201080,189.942093 139.577072,191.001312 136.474350,190.943756 
	C125.486191,190.739975 114.491936,190.864365 102.999985,190.864334 
z"/>
</svg>